<svg width="32" height="32" viewBox="0 0 32 32" fill="none" xmlns="http://www.w3.org/2000/svg">
<path d="M7.51191 6.86133H9.73359C10.6841 6.86133 11.4035 6.99479 11.8918 7.26172C12.3801 7.52865 12.6242 7.9974 12.6242 8.66797C12.6242 8.93815 12.5803 9.18229 12.4924 9.40039C12.4077 9.61849 12.284 9.79753 12.1213 9.9375C11.9585 10.0775 11.76 10.1686 11.5256 10.2109V10.2598C11.7632 10.3086 11.9781 10.3932 12.1701 10.5137C12.3622 10.6309 12.5152 10.8034 12.6291 11.0312C12.7463 11.2559 12.8049 11.5553 12.8049 11.9297C12.8049 12.3626 12.6991 12.7337 12.4875 13.043C12.2759 13.3522 11.9732 13.5898 11.5793 13.7559C11.1887 13.9186 10.7232 14 10.1828 14H7.51191V6.86133ZM9.02559 9.68848H9.90449C10.3439 9.68848 10.6483 9.62012 10.8176 9.4834C10.9868 9.34342 11.0715 9.13835 11.0715 8.86816C11.0715 8.59473 10.9706 8.39941 10.7688 8.28223C10.5702 8.16178 10.2544 8.10156 9.82148 8.10156H9.02559V9.68848ZM9.02559 10.8896V12.75H10.0119C10.4676 12.75 10.785 12.6621 10.9641 12.4863C11.1431 12.3105 11.2326 12.0745 11.2326 11.7783C11.2326 11.6025 11.1936 11.4479 11.1154 11.3145C11.0373 11.181 10.9055 11.0768 10.7199 11.002C10.5376 10.9271 10.2854 10.8896 9.96309 10.8896H9.02559ZM23.7508 14L23.2332 12.3008H20.6307L20.1131 14H18.4822L21.0018 6.83203H22.8523L25.3816 14H23.7508ZM22.8719 11.0312L22.3543 9.37109C22.3217 9.26042 22.2778 9.11882 22.2225 8.94629C22.1704 8.77051 22.1167 8.5931 22.0613 8.41406C22.0092 8.23177 21.9669 8.07389 21.9344 7.94043C21.9018 8.07389 21.8562 8.23991 21.7977 8.43848C21.7423 8.63379 21.6886 8.81934 21.6365 8.99512C21.5844 9.1709 21.547 9.29622 21.5242 9.37109L21.0115 11.0312H22.8719ZM10.7102 17.8613C11.6314 17.8613 12.3036 18.0599 12.7268 18.457C13.1499 18.8509 13.3615 19.3945 13.3615 20.0879C13.3615 20.4004 13.3143 20.6999 13.2199 20.9863C13.1255 21.2695 12.9709 21.5218 12.7561 21.7432C12.5445 21.9645 12.2613 22.1403 11.9064 22.2705C11.5516 22.3975 11.1138 22.4609 10.593 22.4609H9.94355V25H8.42988V17.8613H10.7102ZM10.632 19.1016H9.94355V21.2207H10.4416C10.7248 21.2207 10.9706 21.1833 11.1789 21.1084C11.3872 21.0335 11.5484 20.9163 11.6623 20.7568C11.7762 20.5973 11.8332 20.3923 11.8332 20.1416C11.8332 19.79 11.7355 19.5296 11.5402 19.3604C11.3449 19.1878 11.0422 19.1016 10.632 19.1016ZM24.073 23.0176C24.073 23.4408 23.9705 23.8086 23.7654 24.1211C23.5604 24.4336 23.2609 24.6745 22.867 24.8438C22.4764 25.013 22.0011 25.0977 21.4412 25.0977C21.1938 25.0977 20.9513 25.0814 20.7137 25.0488C20.4793 25.0163 20.2531 24.9691 20.035 24.9072C19.8201 24.8421 19.615 24.7624 19.4197 24.668V23.2617C19.7583 23.4115 20.1098 23.5465 20.4744 23.667C20.839 23.7874 21.2003 23.8477 21.5584 23.8477C21.8058 23.8477 22.0044 23.8151 22.1541 23.75C22.3071 23.6849 22.4178 23.5954 22.4861 23.4814C22.5545 23.3675 22.5887 23.2373 22.5887 23.0908C22.5887 22.9118 22.5285 22.7588 22.408 22.6318C22.2876 22.5049 22.1215 22.3861 21.91 22.2754C21.7016 22.1647 21.4656 22.0459 21.202 21.9189C21.0359 21.8408 20.8553 21.7464 20.66 21.6357C20.4646 21.5218 20.2791 21.3835 20.1033 21.2207C19.9275 21.0579 19.7827 20.861 19.6687 20.6299C19.5581 20.3955 19.5027 20.1156 19.5027 19.79C19.5027 19.3636 19.6004 18.999 19.7957 18.6963C19.991 18.3936 20.2693 18.1624 20.6307 18.0029C20.9952 17.8402 21.4249 17.7588 21.9197 17.7588C22.2908 17.7588 22.644 17.8027 22.9793 17.8906C23.3178 17.9753 23.671 18.099 24.0389 18.2617L23.5506 19.4385C23.2218 19.305 22.9272 19.2025 22.6668 19.1309C22.4064 19.056 22.1411 19.0186 21.8709 19.0186C21.6821 19.0186 21.521 19.0495 21.3875 19.1113C21.254 19.1699 21.1531 19.2546 21.0848 19.3652C21.0164 19.4727 20.9822 19.598 20.9822 19.7412C20.9822 19.9105 21.0311 20.0537 21.1287 20.1709C21.2296 20.2848 21.3794 20.3955 21.5779 20.5029C21.7798 20.6104 22.0304 20.7357 22.3299 20.8789C22.6945 21.0514 23.0053 21.2321 23.2625 21.4209C23.5229 21.6064 23.7231 21.8262 23.8631 22.0801C24.0031 22.3307 24.073 22.6432 24.073 23.0176Z" fill="#4F82E6"/>
<rect x="0.5" y="0.5" width="31" height="31" rx="4.5" stroke="#4F82E6"/>
</svg>
